<svg width="1920" height="1009" viewBox="0 0 1920 1009" fill="none" xmlns="http://www.w3.org/2000/svg">
<path d="M36.5002 720.5C35.7002 768.9 80.8336 771.667 103.5 767C125.5 806 178 790.5 184.5 780.5C204.1 809.3 242.333 796.833 259 787C279 799.333 320.2 810.4 325 756C329.8 701.6 286.667 698 264.5 703C263.333 698.833 258.4 689.2 248 684C237.6 678.8 226.333 686.167 222 690.5C221.333 686 216.8 675.7 204 670.5C191.2 665.3 180.333 672.667 176.5 677C175 671.5 166.9 660.3 146.5 659.5C126.1 658.7 117 670.833 115 677C89.1667 671.333 37.3002 672.1 36.5002 720.5Z" fill="#E2E2E2"/>
<path d="M136 694.5C141.833 695.667 155.1 702.5 161.5 720.5C169.667 716.167 189.6 710.9 204 724.5C210.833 719.5 228.5 712.2 244.5 723M103.5 767C80.8336 771.667 35.7002 768.9 36.5002 720.5C37.3002 672.1 89.1667 671.333 115 677C117 670.833 126.1 658.7 146.5 659.5C166.9 660.3 175 671.5 176.5 677C180.333 672.667 191.2 665.3 204 670.5C216.8 675.7 221.333 686 222 690.5C226.333 686.167 237.6 678.8 248 684C258.4 689.2 263.333 698.833 264.5 703C286.667 698 329.8 701.6 325 756C320.2 810.4 279 799.333 259 787C242.333 796.833 204.1 809.3 184.5 780.5C178 790.5 125.5 806 103.5 767Z" stroke="#BDBDBD" stroke-width="3"/>
<path d="M338.006 426.088C337.585 451.533 361.332 452.987 373.259 450.534C384.835 471.037 412.458 462.888 415.879 457.631C426.192 472.772 446.309 466.218 455.078 461.048C465.602 467.532 487.28 473.35 489.805 444.751C492.331 416.152 469.636 414.26 457.972 416.888C457.358 414.698 454.763 409.633 449.29 406.9C443.818 404.166 437.89 408.039 435.61 410.317C435.259 407.951 432.874 402.536 426.139 399.803C419.404 397.069 413.686 400.942 411.669 403.22C410.88 400.328 406.618 394.44 395.884 394.02C385.15 393.599 380.362 399.978 379.31 403.22C365.717 400.241 338.426 400.644 338.006 426.088Z" fill="#E2E2E2"/>
<path d="M390.359 412.42C393.429 413.033 400.409 416.626 403.777 426.088C408.074 423.81 418.562 421.041 426.139 428.191C429.734 425.563 439.03 421.725 447.449 427.403M373.259 450.534C361.332 452.987 337.585 451.533 338.006 426.088C338.426 400.644 365.717 400.241 379.31 403.22C380.362 399.978 385.15 393.599 395.884 394.02C406.618 394.44 410.88 400.328 411.669 403.22C413.686 400.942 419.404 397.069 426.139 399.803C432.874 402.536 435.259 407.951 435.61 410.317C437.89 408.039 443.818 404.166 449.29 406.9C454.763 409.633 457.358 414.698 457.972 416.888C469.636 414.26 492.331 416.152 489.805 444.751C487.28 473.35 465.602 467.532 455.078 461.048C446.309 466.218 426.192 472.772 415.879 457.631C412.458 462.888 384.835 471.037 373.259 450.534Z" stroke="#BDBDBD" stroke-width="3"/>
<path d="M1586.71 575.534C1596.13 615.607 1632.76 608.795 1649.89 600.38C1675.58 628.108 1714.28 604.748 1717.4 595.192C1739.04 614.992 1766.99 597.009 1778.25 585.542C1796.79 591.683 1832 592.508 1824.52 546.681C1817.04 500.855 1781.84 506.577 1765.17 515.166C1763.37 511.965 1757.43 505.015 1748.04 502.823C1738.65 500.63 1731.19 508.975 1728.63 513.421C1727.16 509.845 1721.4 502.265 1710.09 500.555C1698.78 498.846 1691.64 507.11 1689.48 511.456C1687.14 507.223 1678.34 499.619 1661.88 503.07C1645.42 506.52 1640.67 518.359 1640.36 523.847C1618.54 524.379 1577.28 535.462 1586.71 575.534Z" fill="#E2E2E2"/>
<path d="M1660.77 534.047C1665.67 533.834 1677.69 536.796 1686.55 550.349C1692.17 545.131 1706.99 536.771 1721.32 545.085C1725.74 539.585 1738.33 530.006 1753.36 535.688M1649.89 600.38C1632.76 608.795 1596.13 615.607 1586.71 575.534C1577.28 535.462 1618.54 524.379 1640.36 523.847C1640.67 518.359 1645.42 506.52 1661.88 503.07C1678.34 499.619 1687.14 507.223 1689.48 511.456C1691.64 507.11 1698.78 498.846 1710.09 500.555C1721.4 502.265 1727.16 509.845 1728.63 513.421C1731.19 508.975 1738.65 500.63 1748.04 502.823C1757.43 505.015 1763.37 511.965 1765.17 515.166C1781.84 506.577 1817.04 500.855 1824.52 546.681C1832 592.508 1796.79 591.683 1778.25 585.542C1766.99 597.009 1739.04 614.992 1717.4 595.192C1714.28 604.748 1675.58 628.108 1649.89 600.38Z" stroke="#BDBDBD" stroke-width="3"/>
<path d="M331.336 901.127C335.409 960.015 388.77 958.851 414.941 950.908C444.853 996.089 504.983 971.991 511.591 959.189C537.623 992.217 581.292 973.236 599.872 959.617C624.669 972.597 674.264 981.913 674.273 915.334C674.281 848.754 623.186 848.705 597.637 857.003C595.834 852.057 589.034 840.847 576.266 835.572C563.497 830.296 551.012 840.377 546.365 846.076C545.115 840.676 538.717 828.615 523.126 823.581C507.535 818.546 495.52 828.586 491.461 834.236C489.127 827.704 478.442 814.907 454.37 815.981C430.298 817.054 420.853 832.709 419.14 840.402C388.175 836.107 327.262 842.239 331.336 901.127Z" fill="#E2E2E2"/>
<path d="M445.648 859.56C452.629 860.392 468.938 867.365 478.328 888.594C487.483 882.51 510.378 874.112 528.72 889.192C536.238 882.432 556.257 871.791 576.191 883.309M414.941 950.908C388.77 958.851 335.409 960.015 331.336 901.127C327.262 842.239 388.175 836.107 419.14 840.402C420.853 832.709 430.298 817.054 454.37 815.981C478.442 814.907 489.127 827.704 491.461 834.236C495.52 828.586 507.535 818.546 523.126 823.581C538.717 828.615 545.115 840.676 546.365 846.076C551.012 840.377 563.497 830.296 576.266 835.572C589.034 840.847 595.834 852.057 597.637 857.003C623.186 848.705 674.281 848.754 674.273 915.334C674.264 981.913 624.669 972.597 599.872 959.617C581.292 973.236 537.623 992.217 511.591 959.189C504.983 971.991 444.853 996.089 414.941 950.908Z" stroke="#BDBDBD" stroke-width="3"/>
<path d="M1728.7 865.629C1735.57 933.436 1674.91 942.518 1643.71 938.583C1618.65 995.83 1545.84 980.135 1535.86 966.855C1512.82 1009.52 1459.65 996.433 1435.95 984.559C1410.4 1004.17 1356.04 1024.44 1343.05 948.676C1330.05 872.913 1387.92 862.892 1418.47 867.352C1419.55 861.372 1425.06 847.29 1438.5 838.796C1451.93 830.303 1468.04 839.339 1474.41 844.919C1474.78 838.529 1479.67 823.557 1496.35 814.787C1513.02 806.017 1528.59 815.1 1534.29 820.737C1535.66 812.848 1545.27 796.203 1572.74 792.73C1600.22 789.257 1613.97 805.23 1617.41 813.65C1651.64 802.724 1721.83 797.822 1728.7 865.629Z" fill="#E2E2E2"/>
<path d="M1591.12 840.62C1583.38 842.929 1566.26 854.044 1559.77 880.033C1548.21 874.895 1520.64 869.804 1502.81 890.542C1492.97 884.315 1468.22 876.11 1447.89 893.105M1643.71 938.583C1674.91 942.518 1735.57 933.436 1728.7 865.629C1721.83 797.822 1651.64 802.724 1617.41 813.65C1613.97 805.23 1600.22 789.257 1572.74 792.73C1545.27 796.203 1535.66 812.848 1534.29 820.737C1528.59 815.1 1513.02 806.017 1496.35 814.787C1479.67 823.557 1474.78 838.529 1474.41 844.919C1468.04 839.339 1451.93 830.303 1438.5 838.796C1425.06 847.29 1419.55 861.372 1418.47 867.352C1387.92 862.892 1330.05 872.913 1343.05 948.676C1356.04 1024.44 1410.4 1004.17 1435.95 984.559C1459.65 996.433 1512.82 1009.52 1535.86 966.855C1545.84 980.135 1618.65 995.83 1643.71 938.583Z" stroke="#BDBDBD" stroke-width="3"/>
<path d="M1425.42 495.497C1430.92 518.91 1452.99 514.759 1463.34 509.758C1478.67 525.872 1502.08 512.027 1503.99 506.42C1516.93 517.913 1533.83 507.263 1540.66 500.501C1551.79 504.012 1572.98 504.338 1568.68 477.549C1564.38 450.76 1543.17 454.266 1533.1 459.368C1532.03 457.503 1528.49 453.461 1522.85 452.22C1517.21 450.978 1512.67 455.896 1511.11 458.51C1510.25 456.423 1506.81 452.012 1500.02 451.062C1493.22 450.112 1488.88 454.981 1487.56 457.534C1486.17 455.067 1480.91 450.656 1470.99 452.749C1461.06 454.842 1458.16 461.792 1457.94 465.006C1444.81 465.414 1419.93 472.085 1425.42 495.497Z" fill="#E2E2E2"/>
<path d="M1470.18 470.884C1473.13 470.738 1480.35 472.418 1485.62 480.311C1489.03 477.232 1497.99 472.273 1506.58 477.075C1509.26 473.836 1516.88 468.173 1525.9 471.432M1463.34 509.758C1452.99 514.759 1430.92 518.91 1425.42 495.497C1419.93 472.085 1444.81 465.414 1457.94 465.006C1458.16 461.792 1461.06 454.842 1470.99 452.749C1480.91 450.656 1486.17 455.067 1487.56 457.534C1488.88 454.981 1493.22 450.112 1500.02 451.062C1506.81 452.012 1510.25 456.423 1511.11 458.51C1512.67 455.896 1517.21 450.978 1522.85 452.22C1528.49 453.461 1532.03 457.503 1533.1 459.368C1543.17 454.266 1564.38 450.76 1568.68 477.549C1572.98 504.338 1551.79 504.012 1540.66 500.501C1533.83 507.263 1516.93 517.913 1503.99 506.42C1502.08 512.027 1478.67 525.872 1463.34 509.758Z" stroke="#BDBDBD" stroke-width="3"/>
<path d="M1165.43 636.956C1173.05 665.357 1149.19 673.11 1136.31 673.436C1130.27 699.394 1099.73 697.386 1094.75 692.377C1088.49 712.001 1066.07 709.845 1055.65 706.313C1046.72 716.292 1026.21 728.4 1015.54 697.007C1004.88 665.614 1027.54 657.642 1040.21 657.58C1040.21 654.967 1041.44 648.623 1046.26 644.149C1051.08 639.675 1058.23 642.486 1061.21 644.451C1060.9 641.709 1061.8 635.027 1067.92 630.228C1074.03 625.428 1080.97 628.293 1083.67 630.326C1083.66 626.882 1086.35 619.186 1097.21 615.947C1108.06 612.708 1114.76 618.621 1116.75 621.982C1129.8 615.139 1157.81 608.554 1165.43 636.956Z" fill="#E2E2E2"/>
<path d="M1108.05 635.139C1105.09 636.618 1098.97 642.443 1098.2 653.914C1093.17 652.47 1081.66 652.071 1075.94 662.036C1071.52 660.018 1060.94 658.115 1053.93 666.647M1136.31 673.436C1149.19 673.11 1173.05 665.357 1165.43 636.956C1157.81 608.554 1129.8 615.139 1116.75 621.982C1114.76 618.621 1108.06 612.708 1097.21 615.947C1086.35 619.186 1083.66 626.882 1083.67 630.326C1080.97 628.293 1074.03 625.428 1067.92 630.228C1061.8 635.027 1060.9 641.709 1061.21 644.451C1058.23 642.486 1051.08 639.675 1046.26 644.149C1041.44 648.623 1040.21 654.967 1040.21 657.58C1027.54 657.642 1004.88 665.614 1015.54 697.007C1026.21 728.4 1046.72 716.292 1055.65 706.313C1066.07 709.845 1088.49 712.001 1094.75 692.377C1099.73 697.386 1130.27 699.394 1136.31 673.436Z" stroke="#BDBDBD" stroke-width="3"/>
<path d="M697.46 747.832C702.27 768.205 720.052 764.953 728.342 760.78C740.993 774.983 759.698 763.352 761.159 758.523C771.8 768.683 785.298 759.718 790.716 753.966C799.771 757.182 816.907 757.795 813.013 734.516C809.119 711.236 792.024 713.943 783.963 718.206C783.07 716.573 780.139 713.016 775.559 711.852C770.979 710.688 767.392 714.879 766.171 717.119C765.437 715.297 762.591 711.422 757.08 710.492C751.57 709.563 748.138 713.714 747.111 715.906C745.948 713.747 741.625 709.842 733.635 711.501C725.645 713.16 723.402 719.137 723.279 721.918C712.669 722.067 692.651 727.459 697.46 747.832Z" fill="#E2E2E2"/>
<path d="M733.268 727.203C735.652 727.122 741.516 728.691 745.9 735.613C748.606 732.997 755.773 728.84 762.792 733.135C764.911 730.371 770.985 725.583 778.328 728.547M728.342 760.78C720.052 764.953 702.27 768.205 697.46 747.832C692.651 727.459 712.669 722.067 723.279 721.918C723.402 719.137 725.645 713.16 733.635 711.501C741.625 709.842 745.948 713.747 747.111 715.906C748.138 713.714 751.57 709.563 757.08 710.492C762.591 711.422 765.437 715.297 766.171 717.119C767.392 714.879 770.979 710.688 775.559 711.852C780.139 713.016 783.07 716.573 783.963 718.206C792.024 713.943 809.119 711.236 813.013 734.516C816.907 757.795 799.771 757.182 790.716 753.966C785.298 759.718 771.8 768.683 761.159 758.523C759.698 763.352 740.993 774.983 728.342 760.78Z" stroke="#BDBDBD" stroke-width="3"/>
</svg>
