<svg width="curent" height="curent" viewBox="0 0 372 312" fill="curent" xmlns="http://www.w3.org/2000/svg">
<path d="M16.5 113L7.5 106L12 87.5L16.5 69L51.5 56V33.5L128.5 2H239.5L316 33.5V56L356 72.5L360.776 92.5L364 106L356 113L361.262 189L367.527 279.5L369.5 308L321 308.264L261 308.59L232.5 308.746L204 308.901L163.5 309.121L135.5 309.273L107.5 309.426L46 309.761L2 310L4.24492 279.5L10.8781 189.38L16.5 113Z" fill="#E9E9E9"/>
<path d="M16.5 113L7.5 106M16.5 113L10.8781 189.38M16.5 113L62.4246 106.97M7.5 106L12 87.5M7.5 106L62.8272 102M51.5 56V33.5L128.5 2H239.5L316 33.5V56M51.5 56L16.5 69L12 87.5M51.5 56V69H65.5M316 56L356 72.5L360.776 92.5M316 56V69H304.5M364 106L356 113M364 106L360.776 92.5M364 106L306.776 102M356 113L361.262 189M356 113L307.118 106.97M107.5 189H154.5M107.5 189V162M107.5 189H95V199H273.5V189H261M107.5 189H261M261 189H217M261 189V163.75M154.5 105.035C163.663 102.803 174.151 101.588 186 102C197.807 102.411 208.109 104.257 217 106.97M154.5 105.035C128.091 111.467 112.697 126.338 107.5 135V162M154.5 105.035V189M154.5 189H217M217 106.97C242.75 114.828 256.664 129.952 261 138.5V163.75M217 106.97V189M107.5 162L261 163.75M135.5 220C114.3 220 108 232.333 107.5 238.5V259M135.5 220C156.7 220 163 232.333 163.5 238.5V259M135.5 220V309.273M163.5 309.121L135.5 309.273M163.5 309.121V290M163.5 309.121L204 308.901M107.5 309.426V304.5V292M107.5 309.426L135.5 309.273M107.5 309.426L46 309.761M107.5 259H163.5M107.5 259V292M163.5 259V290M107.5 292L160.5 290H163.5M204 308.901L232.5 308.746M204 308.901V290M230 220C210 220 204.333 232.333 204 238.5V259M230 220C250 220 259 232.333 261 238.5V259M230 220L232.5 308.746M261 308.59L232.5 308.746M261 308.59V290M261 308.59L321 308.264M204 259H261M204 259V290M261 259V290M204 290H261M65.5 69H304.5M65.5 69L64.0421 87M46 309.761L2 310L4.24492 279.5M46 309.761L48.4509 279.5M304.5 69L305.741 87M321 308.264L369.5 308L367.527 279.5M321 308.264L319.016 279.5M312.75 188.632L331.5 188.774M312.75 188.632L310.901 161.816M312.75 188.632L314.913 220M361.262 189L367.527 279.5M361.262 189L331.5 188.774M319.016 279.5H343.272M319.016 279.5L316.965 249.75M367.527 279.5H343.272M55.75 189.38H38M55.75 189.38L57.9522 162.19M55.75 189.38L52.946 224M10.8781 189.38L4.24492 279.5M10.8781 189.38H38M4.24492 279.5H26.3479M48.4509 279.5H26.3479M48.4509 279.5L50.6985 251.75M305.741 87L360.776 92.5M305.741 87L306.776 102M306.776 102L307.118 106.97M307.118 106.97L309.051 135M12 87.5L64.0421 87M64.0421 87L62.8272 102M62.8272 102L62.4246 106.97M62.4246 106.97L60.1544 135M309.051 135C315.701 134.333 329.5 136.7 331.5 151.5V162M309.051 135L310.901 161.816M331.5 188.774V162M310.901 161.816L331.5 162M314.913 220C322.275 221.167 337.4 226.5 339 238.5C339.436 241.767 339.894 245.651 340.347 249.75M314.913 220L316.965 249.75M343.272 279.5C342.721 273.193 341.557 260.706 340.347 249.75M316.965 249.75H340.347M60.1544 135C53.9363 134 40.8 135.9 38 151.5C37.2624 155.609 36.8325 159.757 36.6206 163.75M60.1544 135L57.9522 162.19M38 189.38C37.1407 184.867 36.0281 174.915 36.6206 163.75M36.6206 163.75L57.9522 162.19M52.946 224C47.1307 223.667 34.7 226.1 31.5 238.5C30.3815 242.834 29.4624 248.109 28.7236 253.5M52.946 224L50.6985 251.75M26.3479 279.5C26.5977 273.971 27.3485 263.534 28.7236 253.5M28.7236 253.5L50.6985 251.75M128.5 16C138.5 14.8 141.667 24.1667 142 29V37.5M128.5 16C118.5 17.2 116 25.1667 116 29V37.5M128.5 16L129 56M183 16C193 14.8 196.167 24.1667 196.5 29V37.5M183 16C173 17.2 170.5 25.1667 170.5 29V37.5M183 16L183.5 56M238 16C248 14.8 251.167 24.1667 251.5 29V37.5M238 16C228 17.2 225.5 25.1667 225.5 29V37.5M238 16L238.5 56M129 56H116V37.5M129 56H142V37.5M116 37.5H142M183.5 56H170.5V37.5M183.5 56H196.5V37.5M170.5 37.5H196.5M238.5 56H225.5V37.5M238.5 56H251.5V37.5M225.5 37.5H251.5" stroke="#BDBDBD" stroke-width="3"/>
</svg>
